<?xml version="1.0" encoding="utf-8"?>
<!-- Generator: Adobe Illustrator 25.0.1, SVG Export Plug-In . SVG Version: 6.00 Build 0)  -->
<svg version="1.1" id="logo" xmlns="http://www.w3.org/2000/svg" xmlns:xlink="http://www.w3.org/1999/xlink" x="0px" y="0px"
	 viewBox="0 0 32 32" style="enable-background:new 0 0 32 32;" xml:space="preserve">
<g id="knot">
	<path d="M13.8,24.2c0,0,1.4,0.8,1.8,0.8c0,0,0.6,3.5,1.1,4.9c0.1,0.3,0,0.6-0.3,0.7L15.2,31C15.2,31,13.8,25.2,13.8,24.2z"/>
	<path d="M16,25c0,0,0.7,0,1.3-0.3c0,0,0.2,2.9,1,4.3c0.1,0.2,0,0.4-0.1,0.6L17,30.3c0,0,0.1-0.4,0.1-0.6C16.7,28.7,15.7,26.3,16,25
		z"/>
	<path d="M12.4,21c0,0,0.3,3.6,3.5,3.6c2.3,0,3.4-3.4,3.4-3.4s-1.8,1.3-3.6,1.3C13.3,22.9,12.4,21,12.4,21z"/>
	<path d="M13.6,17.4c0,0-1.3,3.3,2.3,2.7c3.4-0.6,2.3-1.6,2.3-1.6l1.2-3c0,0,1.5,1,0.9,3.7s-3.6,3.1-5,3.2c-1.3,0.1-2.8-0.7-3.1-2.4
		c-0.3-1.7,0.4-3.9,0.4-3.9L13.6,17.4z"/>
	<path d="M17.9,8.7c0,0,0.3,1.5-0.2,2.4c-0.6,1-2.8,3.7-3.5,5.3c-0.7,1.7-0.5,2.7-0.5,2.7s0.4,0.7,1.6,0.7c0,0,0.2-3.7,2.2-5.4
		s4.7-3.4,0.3-7.7v2C17.8,8.7,17.9,8.7,17.9,8.7z"/>
	<path d="M15.7,19.8c0,0,1.6-0.2,1.9-0.6c0,0,1-2.9,1.6-4.5c0.7-1.7,0.3-1.7,0.3-1.7s-2.2,1.7-2.5,2.4
		C16.8,16.1,15.4,18.8,15.7,19.8z"/>
	<path d="M15.9,13.1l-1,1.7c0,0-2.7-2-2.7-4.7s1.7-3.4,1.7-3.4v2.7C13.9,9.4,14.3,12.4,15.9,13.1z"/>
	<path d="M14.6,15.1c0,0-0.7,1-1,2c0,0-2-2.7-2-4s0.7-2,0.7-2S11.9,12.7,14.6,15.1z"/>
	<path d="M13.9,1.7c0,0,0.3,4.7,0.3,6s0,4.3,1.7,5c0,0,0.3-9-0.3-10.4C14.9,1.1,13.9,1.7,13.9,1.7z"/>
	<path d="M16.3,12.7c0,0,0.3-10-0.7-11S16.9,1,16.9,1s0.7,2,0.7,6v3.7c0,0.1-0.1,0.2-0.1,0.3C17.2,11.5,16.5,12.2,16.3,12.7z"/>
</g>
</svg>
